<mxfile host="app.diagrams.net" modified="2023-11-28T10:49:11.200Z" agent="Mozilla/5.0 (Macintosh; Intel Mac OS X 10_15_7) AppleWebKit/537.36 (KHTML, like Gecko) Chrome/119.0.0.0 Safari/537.36" etag="Q_G0OflZ-bPNy3K96RqJ" version="22.1.4" type="github">
  <diagram name="Page-1" id="8r2ohjrlJW7-yg8qyaOm">
    <mxGraphModel dx="894" dy="795" grid="1" gridSize="10" guides="1" tooltips="1" connect="1" arrows="1" fold="1" page="1" pageScale="1" pageWidth="827" pageHeight="1169" math="0" shadow="0">
      <root>
        <mxCell id="0" />
        <mxCell id="1" parent="0" />
        <mxCell id="_r7iJmq-mioABLconVAV-20" style="edgeStyle=orthogonalEdgeStyle;rounded=0;orthogonalLoop=1;jettySize=auto;html=1;entryX=0.5;entryY=1;entryDx=0;entryDy=0;" edge="1" parent="1" source="_r7iJmq-mioABLconVAV-4" target="_r7iJmq-mioABLconVAV-19">
          <mxGeometry relative="1" as="geometry" />
        </mxCell>
        <mxCell id="_r7iJmq-mioABLconVAV-21" value="turnOff()" style="edgeLabel;html=1;align=center;verticalAlign=middle;resizable=0;points=[];" vertex="1" connectable="0" parent="_r7iJmq-mioABLconVAV-20">
          <mxGeometry x="0.0452" y="2" relative="1" as="geometry">
            <mxPoint x="-28" y="1" as="offset" />
          </mxGeometry>
        </mxCell>
        <mxCell id="_r7iJmq-mioABLconVAV-4" value="standby mode" style="rounded=1;arcSize=10;whiteSpace=wrap;html=1;align=center;" vertex="1" parent="1">
          <mxGeometry x="250" y="177.5" width="100" height="35" as="geometry" />
        </mxCell>
        <mxCell id="_r7iJmq-mioABLconVAV-9" style="edgeStyle=orthogonalEdgeStyle;rounded=0;orthogonalLoop=1;jettySize=auto;html=1;exitX=1;exitY=0.5;exitDx=0;exitDy=0;" edge="1" parent="1" source="_r7iJmq-mioABLconVAV-4" target="_r7iJmq-mioABLconVAV-8">
          <mxGeometry relative="1" as="geometry">
            <mxPoint x="370" y="192.5" as="sourcePoint" />
          </mxGeometry>
        </mxCell>
        <mxCell id="_r7iJmq-mioABLconVAV-10" value="generateRoute()" style="edgeLabel;html=1;align=center;verticalAlign=middle;resizable=0;points=[];" vertex="1" connectable="0" parent="_r7iJmq-mioABLconVAV-9">
          <mxGeometry x="-0.2857" y="3" relative="1" as="geometry">
            <mxPoint x="11" y="-14" as="offset" />
          </mxGeometry>
        </mxCell>
        <mxCell id="_r7iJmq-mioABLconVAV-32" style="edgeStyle=orthogonalEdgeStyle;rounded=0;orthogonalLoop=1;jettySize=auto;html=1;" edge="1" parent="1" source="_r7iJmq-mioABLconVAV-8" target="_r7iJmq-mioABLconVAV-31">
          <mxGeometry relative="1" as="geometry" />
        </mxCell>
        <mxCell id="_r7iJmq-mioABLconVAV-33" value="flyPath()" style="edgeLabel;html=1;align=center;verticalAlign=middle;resizable=0;points=[];" vertex="1" connectable="0" parent="_r7iJmq-mioABLconVAV-32">
          <mxGeometry x="-0.425" y="-1" relative="1" as="geometry">
            <mxPoint x="17" y="-16" as="offset" />
          </mxGeometry>
        </mxCell>
        <mxCell id="_r7iJmq-mioABLconVAV-8" value="path planning" style="rounded=1;arcSize=10;whiteSpace=wrap;html=1;align=center;" vertex="1" parent="1">
          <mxGeometry x="460" y="177.5" width="90" height="35" as="geometry" />
        </mxCell>
        <mxCell id="_r7iJmq-mioABLconVAV-19" value="" style="ellipse;html=1;shape=endState;fillColor=#000000;strokeColor=#ff0000;" vertex="1" parent="1">
          <mxGeometry x="285" y="70" width="30" height="30" as="geometry" />
        </mxCell>
        <mxCell id="_r7iJmq-mioABLconVAV-26" style="edgeStyle=orthogonalEdgeStyle;rounded=0;orthogonalLoop=1;jettySize=auto;html=1;" edge="1" parent="1" source="_r7iJmq-mioABLconVAV-25" target="_r7iJmq-mioABLconVAV-4">
          <mxGeometry relative="1" as="geometry" />
        </mxCell>
        <mxCell id="_r7iJmq-mioABLconVAV-25" value="on drone-pad" style="rounded=1;arcSize=10;whiteSpace=wrap;html=1;align=center;" vertex="1" parent="1">
          <mxGeometry x="100" y="177.5" width="100" height="35" as="geometry" />
        </mxCell>
        <mxCell id="_r7iJmq-mioABLconVAV-28" value="" style="ellipse;html=1;shape=startState;fillColor=#000000;strokeColor=#ff0000;" vertex="1" parent="1">
          <mxGeometry x="30" y="175" width="30" height="30" as="geometry" />
        </mxCell>
        <mxCell id="_r7iJmq-mioABLconVAV-29" value="" style="edgeStyle=orthogonalEdgeStyle;html=1;verticalAlign=bottom;endArrow=open;endSize=8;strokeColor=#ff0000;rounded=0;entryX=0;entryY=0.25;entryDx=0;entryDy=0;" edge="1" source="_r7iJmq-mioABLconVAV-28" parent="1" target="_r7iJmq-mioABLconVAV-25">
          <mxGeometry relative="1" as="geometry">
            <mxPoint x="75" y="250" as="targetPoint" />
          </mxGeometry>
        </mxCell>
        <mxCell id="_r7iJmq-mioABLconVAV-35" style="edgeStyle=orthogonalEdgeStyle;rounded=0;orthogonalLoop=1;jettySize=auto;html=1;entryX=0.5;entryY=0;entryDx=0;entryDy=0;" edge="1" parent="1" source="_r7iJmq-mioABLconVAV-31" target="_r7iJmq-mioABLconVAV-34">
          <mxGeometry relative="1" as="geometry" />
        </mxCell>
        <mxCell id="_r7iJmq-mioABLconVAV-36" value="[ person land]&amp;nbsp; /&lt;br&gt;trackingPerson()" style="edgeLabel;html=1;align=center;verticalAlign=middle;resizable=0;points=[];" vertex="1" connectable="0" parent="_r7iJmq-mioABLconVAV-35">
          <mxGeometry x="-0.3128" y="2" relative="1" as="geometry">
            <mxPoint x="48" y="14" as="offset" />
          </mxGeometry>
        </mxCell>
        <mxCell id="_r7iJmq-mioABLconVAV-31" value="search" style="rounded=1;arcSize=10;whiteSpace=wrap;html=1;align=center;" vertex="1" parent="1">
          <mxGeometry x="630" y="177.5" width="100" height="35" as="geometry" />
        </mxCell>
        <mxCell id="_r7iJmq-mioABLconVAV-44" style="edgeStyle=orthogonalEdgeStyle;rounded=0;orthogonalLoop=1;jettySize=auto;html=1;" edge="1" parent="1" source="_r7iJmq-mioABLconVAV-34" target="_r7iJmq-mioABLconVAV-43">
          <mxGeometry relative="1" as="geometry" />
        </mxCell>
        <mxCell id="_r7iJmq-mioABLconVAV-45" value="[ case canceled ] / returnToBase()&amp;nbsp;" style="edgeLabel;html=1;align=center;verticalAlign=middle;resizable=0;points=[];" vertex="1" connectable="0" parent="_r7iJmq-mioABLconVAV-44">
          <mxGeometry x="0.5459" y="1" relative="1" as="geometry">
            <mxPoint x="86" y="-18" as="offset" />
          </mxGeometry>
        </mxCell>
        <mxCell id="_r7iJmq-mioABLconVAV-47" value="[ signal that victim found ] /&amp;nbsp;&lt;br&gt;returnToBase()" style="edgeLabel;html=1;align=center;verticalAlign=middle;resizable=0;points=[];" vertex="1" connectable="0" parent="_r7iJmq-mioABLconVAV-44">
          <mxGeometry x="-0.0108" y="1" relative="1" as="geometry">
            <mxPoint x="-17" y="22" as="offset" />
          </mxGeometry>
        </mxCell>
        <mxCell id="_r7iJmq-mioABLconVAV-34" value="on track" style="rounded=1;arcSize=10;whiteSpace=wrap;html=1;align=center;" vertex="1" parent="1">
          <mxGeometry x="630" y="310" width="100" height="35" as="geometry" />
        </mxCell>
        <mxCell id="_r7iJmq-mioABLconVAV-41" value="" style="curved=1;endArrow=classic;html=1;rounded=0;entryX=0.25;entryY=1;entryDx=0;entryDy=0;exitX=0.25;exitY=0;exitDx=0;exitDy=0;" edge="1" parent="1" source="_r7iJmq-mioABLconVAV-34" target="_r7iJmq-mioABLconVAV-31">
          <mxGeometry width="50" height="50" relative="1" as="geometry">
            <mxPoint x="500" y="320" as="sourcePoint" />
            <mxPoint x="550" y="270" as="targetPoint" />
            <Array as="points">
              <mxPoint x="620" y="280" />
              <mxPoint x="630" y="230" />
            </Array>
          </mxGeometry>
        </mxCell>
        <mxCell id="_r7iJmq-mioABLconVAV-42" value="[ person lost ]" style="edgeLabel;html=1;align=center;verticalAlign=middle;resizable=0;points=[];" vertex="1" connectable="0" parent="_r7iJmq-mioABLconVAV-41">
          <mxGeometry x="0.119" y="1" relative="1" as="geometry">
            <mxPoint x="-34" y="5" as="offset" />
          </mxGeometry>
        </mxCell>
        <mxCell id="_r7iJmq-mioABLconVAV-50" style="edgeStyle=orthogonalEdgeStyle;rounded=0;orthogonalLoop=1;jettySize=auto;html=1;" edge="1" parent="1" source="_r7iJmq-mioABLconVAV-43" target="_r7iJmq-mioABLconVAV-4">
          <mxGeometry relative="1" as="geometry">
            <mxPoint x="261" y="310" as="sourcePoint" />
            <mxPoint x="261" y="212.5" as="targetPoint" />
          </mxGeometry>
        </mxCell>
        <mxCell id="_r7iJmq-mioABLconVAV-51" value="[ arrived ] /&amp;nbsp;&lt;br&gt;landing ()" style="edgeLabel;html=1;align=center;verticalAlign=middle;resizable=0;points=[];" vertex="1" connectable="0" parent="_r7iJmq-mioABLconVAV-50">
          <mxGeometry x="0.0872" y="-2" relative="1" as="geometry">
            <mxPoint x="-32" y="3" as="offset" />
          </mxGeometry>
        </mxCell>
        <mxCell id="_r7iJmq-mioABLconVAV-43" value="return" style="rounded=1;arcSize=10;whiteSpace=wrap;html=1;align=center;" vertex="1" parent="1">
          <mxGeometry x="250" y="310" width="100" height="35" as="geometry" />
        </mxCell>
        <mxCell id="_r7iJmq-mioABLconVAV-53" value="" style="curved=1;endArrow=classic;html=1;rounded=0;exitX=0.5;exitY=1;exitDx=0;exitDy=0;entryX=0.69;entryY=1.014;entryDx=0;entryDy=0;entryPerimeter=0;" edge="1" parent="1" source="_r7iJmq-mioABLconVAV-8" target="_r7iJmq-mioABLconVAV-4">
          <mxGeometry width="50" height="50" relative="1" as="geometry">
            <mxPoint x="275" y="280" as="sourcePoint" />
            <mxPoint x="325" y="230" as="targetPoint" />
            <Array as="points">
              <mxPoint x="420" y="260" />
              <mxPoint x="340" y="240" />
            </Array>
          </mxGeometry>
        </mxCell>
        <mxCell id="_r7iJmq-mioABLconVAV-54" value="[ emergency case ] /&lt;br&gt;abortPathPLanning()" style="edgeLabel;html=1;align=center;verticalAlign=middle;resizable=0;points=[];" vertex="1" connectable="0" parent="_r7iJmq-mioABLconVAV-53">
          <mxGeometry x="0.139" y="-1" relative="1" as="geometry">
            <mxPoint x="18" y="17" as="offset" />
          </mxGeometry>
        </mxCell>
      </root>
    </mxGraphModel>
  </diagram>
</mxfile>
